<svg xmlns="http://www.w3.org/2000/svg" xmlns:xlink="http://www.w3.org/1999/xlink" width="50" zoomAndPan="magnify" viewBox="0 0 37.5 37.499999" height="50" preserveAspectRatio="xMidYMid meet" version="1.0"><defs><g/><clipPath id="858b53d59e"><path d="M 1 20 L 36 20 L 36 30.753906 L 1 30.753906 Z M 1 20 " clip-rule="nonzero"/></clipPath><clipPath id="90726c62dd"><path d="M 1 6.328125 L 36 6.328125 L 36 21 L 1 21 Z M 1 6.328125 " clip-rule="nonzero"/></clipPath><clipPath id="e45f78d796"><path d="M 24 7 L 37.007812 7 L 37.007812 30 L 24 30 Z M 24 7 " clip-rule="nonzero"/></clipPath></defs><g clip-path="url(#858b53d59e)"><path fill="#c1ff72" d="M 35.390625 30.230469 L 23.476562 20.339844 C 23.125 20.050781 22.621094 20.050781 22.273438 20.339844 L 19.0625 23.003906 C 18.738281 23.273438 18.273438 23.273438 17.949219 23.003906 L 14.738281 20.339844 C 14.390625 20.050781 13.886719 20.050781 13.539062 20.339844 L 1.621094 30.230469 C 1.457031 30.367188 1.554688 30.632812 1.769531 30.632812 L 35.246094 30.632812 C 35.457031 30.632812 35.554688 30.367188 35.390625 30.230469 " fill-opacity="1" fill-rule="nonzero"/></g><path fill="#c1ff72" d="M 12.050781 18.105469 L -0.101562 8.015625 C -0.25 7.890625 -0.476562 7.996094 -0.476562 8.191406 L -0.476562 28.808594 C -0.476562 29.003906 -0.25 29.109375 -0.101562 28.984375 L 12.050781 18.894531 C 12.296875 18.691406 12.296875 18.308594 12.050781 18.105469 " fill-opacity="1" fill-rule="nonzero"/><g clip-path="url(#90726c62dd)"><path fill="#c1ff72" d="M 1.621094 6.769531 L 18.050781 20.410156 C 18.316406 20.628906 18.699219 20.628906 18.960938 20.410156 L 35.390625 6.769531 C 35.554688 6.632812 35.457031 6.367188 35.246094 6.367188 L 1.769531 6.367188 C 1.554688 6.367188 1.457031 6.632812 1.621094 6.769531 " fill-opacity="1" fill-rule="nonzero"/></g><g clip-path="url(#e45f78d796)"><path fill="#c1ff72" d="M 37.117188 8.015625 L 24.964844 18.105469 C 24.714844 18.308594 24.714844 18.691406 24.964844 18.894531 L 37.117188 28.984375 C 37.261719 29.109375 37.488281 29.003906 37.488281 28.808594 L 37.488281 8.191406 C 37.488281 7.996094 37.261719 7.890625 37.117188 8.015625 " fill-opacity="1" fill-rule="nonzero"/></g><g fill="#000000" fill-opacity="1"><g transform="translate(18.237304, 18.873354)"><g><path d="M 0.140625 -0.109375 C 0.140625 -0.148438 0.148438 -0.179688 0.171875 -0.203125 C 0.191406 -0.222656 0.222656 -0.234375 0.265625 -0.234375 C 0.296875 -0.234375 0.320312 -0.222656 0.34375 -0.203125 C 0.363281 -0.179688 0.375 -0.148438 0.375 -0.109375 C 0.375 -0.0664062 0.363281 -0.03125 0.34375 0 C 0.320312 0.0195312 0.296875 0.03125 0.265625 0.03125 C 0.222656 0.03125 0.191406 0.0195312 0.171875 0 C 0.148438 -0.0195312 0.140625 -0.0546875 0.140625 -0.109375 Z M 0.140625 -0.109375 "/></g></g></g></svg>