<svg xmlns="http://www.w3.org/2000/svg" xmlns:xlink="http://www.w3.org/1999/xlink" width="50" zoomAndPan="magnify" viewBox="0 0 37.5 37.499999" height="50" preserveAspectRatio="xMidYMid meet" version="1.0"><defs><g/><clipPath id="2968f3797e"><path d="M 0 0 L 37.007812 0 L 37.007812 37.007812 L 0 37.007812 Z M 0 0 " clip-rule="nonzero"/></clipPath></defs><g clip-path="url(#2968f3797e)"><path fill="#c1ff72" d="M 18.503906 0 C 8.285156 0 0 8.285156 0 18.503906 C 0 28.722656 8.285156 37.007812 18.503906 37.007812 C 28.722656 37.007812 37.007812 28.722656 37.007812 18.503906 C 37.007812 8.285156 28.722656 0 18.503906 0 Z M 18.503906 35.605469 C 9.058594 35.605469 1.402344 27.949219 1.402344 18.503906 C 1.402344 9.058594 9.058594 1.402344 18.503906 1.402344 C 27.949219 1.402344 35.605469 9.058594 35.605469 18.503906 C 35.605469 27.949219 27.949219 35.605469 18.503906 35.605469 Z M 18.503906 35.605469 " fill-opacity="1" fill-rule="nonzero"/></g><path fill="#c1ff72" d="M 16.332031 27.574219 C 15.867188 27.617188 15.496094 27.667969 15.125 27.6875 C 13.011719 27.785156 11.449219 26.953125 10.503906 25.011719 C 10.199219 24.394531 9.8125 23.8125 9.410156 23.25 C 9.167969 22.914062 8.832031 22.644531 8.519531 22.363281 L 8.515625 22.363281 C 8.320312 22.191406 8.40625 21.871094 8.660156 21.832031 C 8.957031 21.78125 9.238281 21.835938 9.507812 21.902344 C 10.355469 22.117188 10.902344 22.722656 11.335938 23.441406 C 12.316406 25.066406 14.007812 25.746094 15.835938 25.261719 C 16.148438 25.179688 16.285156 25.046875 16.351562 24.707031 C 16.429688 24.3125 16.539062 23.925781 16.652344 23.527344 C 16.6875 23.410156 16.695312 23.289062 16.679688 23.167969 C 16.667969 23.046875 16.628906 22.929688 16.566406 22.824219 C 16.503906 22.71875 16.421875 22.628906 16.324219 22.554688 C 16.226562 22.484375 16.117188 22.433594 15.996094 22.402344 L 15.988281 22.402344 C 14.089844 21.945312 12.449219 21.101562 11.394531 19.367188 C 10.832031 18.441406 10.550781 17.421875 10.566406 16.355469 C 10.582031 15.148438 10.6875 13.941406 10.828125 12.738281 C 10.925781 11.894531 11.316406 11.144531 11.921875 10.539062 C 12.136719 10.328125 12.152344 10.148438 12.050781 9.875 C 11.632812 8.75 11.707031 7.625 12.078125 6.5 C 12.183594 6.183594 12.332031 6.136719 12.632812 6.234375 C 13.574219 6.53125 14.277344 7.140625 14.890625 7.875 L 14.898438 7.882812 C 15.054688 8.070312 15.253906 8.203125 15.492188 8.269531 C 15.730469 8.339844 15.96875 8.335938 16.203125 8.257812 C 18.152344 7.617188 21.113281 7.609375 22.953125 8.242188 C 23.1875 8.324219 23.425781 8.328125 23.667969 8.261719 C 23.910156 8.195312 24.109375 8.066406 24.269531 7.871094 L 24.273438 7.867188 C 24.890625 7.132812 25.597656 6.527344 26.535156 6.230469 C 26.851562 6.128906 26.984375 6.207031 27.085938 6.511719 C 27.453125 7.636719 27.515625 8.757812 27.117188 9.890625 C 27.0625 10.050781 27.0625 10.328125 27.164062 10.429688 C 28.007812 11.285156 28.375 12.34375 28.46875 13.496094 C 28.558594 14.605469 28.65625 15.734375 28.554688 16.835938 C 28.285156 19.703125 26.542969 21.371094 23.890625 22.203125 C 23.664062 22.273438 23.433594 22.332031 23.199219 22.390625 C 23.074219 22.417969 22.960938 22.472656 22.863281 22.546875 C 22.761719 22.625 22.679688 22.71875 22.617188 22.832031 C 22.558594 22.941406 22.519531 23.0625 22.511719 23.1875 C 22.5 23.316406 22.515625 23.4375 22.558594 23.558594 C 22.917969 24.605469 22.863281 25.722656 22.855469 26.832031 C 22.855469 27.089844 22.855469 27.34375 22.855469 27.597656 C 22.851562 28.027344 22.769531 28.4375 22.605469 28.832031 C 22.441406 29.226562 22.210938 29.574219 21.90625 29.875 C 21.605469 30.175781 21.257812 30.410156 20.863281 30.574219 C 20.46875 30.734375 20.054688 30.816406 19.628906 30.816406 L 19.558594 30.816406 C 19.128906 30.816406 18.71875 30.734375 18.324219 30.570312 C 17.925781 30.410156 17.578125 30.175781 17.277344 29.871094 C 16.972656 29.570312 16.742188 29.222656 16.578125 28.828125 C 16.414062 28.429688 16.332031 28.019531 16.332031 27.59375 Z M 16.332031 27.574219 " fill-opacity="1" fill-rule="nonzero"/><g fill="#000000" fill-opacity="1"><g transform="translate(18.237304, 18.873354)"><g><path d="M 0.140625 -0.109375 C 0.140625 -0.148438 0.148438 -0.179688 0.171875 -0.203125 C 0.191406 -0.222656 0.222656 -0.234375 0.265625 -0.234375 C 0.296875 -0.234375 0.320312 -0.222656 0.34375 -0.203125 C 0.363281 -0.179688 0.375 -0.148438 0.375 -0.109375 C 0.375 -0.0664062 0.363281 -0.03125 0.34375 0 C 0.320312 0.0195312 0.296875 0.03125 0.265625 0.03125 C 0.222656 0.03125 0.191406 0.0195312 0.171875 0 C 0.148438 -0.0195312 0.140625 -0.0546875 0.140625 -0.109375 Z M 0.140625 -0.109375 "/></g></g></g></svg>