<svg xmlns="http://www.w3.org/2000/svg" xmlns:xlink="http://www.w3.org/1999/xlink" width="50" zoomAndPan="magnify" viewBox="0 0 37.5 37.499999" height="50" preserveAspectRatio="xMidYMid meet" version="1.0"><path fill="#c1ff72" d="M 31.25 31.289062 L 25.816406 31.289062 L 25.816406 22.78125 C 25.816406 20.75 25.777344 18.136719 22.988281 18.136719 C 20.199219 18.136719 19.722656 20.347656 19.722656 22.632812 L 19.722656 31.289062 L 14.289062 31.289062 L 14.289062 13.789062 L 19.507812 13.789062 L 19.507812 16.183594 L 19.578125 16.183594 C 20.640625 14.363281 22.621094 13.277344 24.726562 13.355469 C 30.234375 13.355469 31.25 16.980469 31.25 21.691406 L 31.25 31.292969 Z M 8.160156 11.398438 C 6.417969 11.398438 5.007812 9.984375 5.003906 8.242188 C 5.003906 6.5 6.414062 5.089844 8.15625 5.089844 C 9.898438 5.089844 11.3125 6.5 11.3125 8.242188 C 11.3125 9.984375 9.902344 11.394531 8.160156 11.398438 M 10.875 31.289062 L 5.4375 31.289062 L 5.4375 13.789062 L 10.875 13.789062 Z M 33.957031 0.0429688 L 2.707031 0.0429688 C 1.230469 0.0273438 0.015625 1.210938 0 2.6875 L 0 34.070312 C 0.015625 35.546875 1.230469 36.730469 2.707031 36.71875 L 33.960938 36.71875 C 35.441406 36.734375 36.65625 35.550781 36.675781 34.070312 L 36.675781 2.683594 C 36.65625 1.203125 35.441406 0.0234375 33.957031 0.0390625 " fill-opacity="1" fill-rule="nonzero"/></svg>