<svg xmlns="http://www.w3.org/2000/svg" xmlns:xlink="http://www.w3.org/1999/xlink" width="50" zoomAndPan="magnify" viewBox="0 0 37.5 37.499999" height="50" preserveAspectRatio="xMidYMid meet" version="1.0"><defs><g/><clipPath id="f3efacf305"><path d="M 6.359375 0 L 30.785156 0 L 30.785156 37 L 6.359375 37 Z M 6.359375 0 " clip-rule="nonzero"/></clipPath></defs><g clip-path="url(#f3efacf305)"><path fill="#c1ff72" d="M 22.945312 25.933594 L 28.175781 17.789062 C 30.484375 14.199219 30.640625 9.820312 28.589844 6.074219 C 26.542969 2.328125 22.773438 0.0859375 18.503906 0.0859375 C 14.234375 0.0859375 10.464844 2.328125 8.414062 6.074219 C 6.367188 9.8125 6.523438 14.191406 8.828125 17.789062 L 14.054688 25.925781 C 9.472656 26.738281 6.554688 28.777344 6.554688 31.234375 C 6.5625 34.523438 11.582031 36.917969 18.503906 36.917969 C 25.425781 36.917969 30.445312 34.523438 30.445312 31.234375 C 30.445312 28.765625 27.53125 26.734375 22.945312 25.933594 Z M 23.464844 10.9375 C 23.464844 13.664062 21.238281 15.886719 18.503906 15.886719 C 15.769531 15.886719 13.542969 13.664062 13.542969 10.9375 C 13.542969 8.203125 15.769531 5.976562 18.503906 5.976562 C 21.238281 5.976562 23.464844 8.195312 23.464844 10.9375 Z M 17.6875 31.578125 C 17.863281 31.859375 18.167969 32.027344 18.503906 32.027344 C 18.84375 32.027344 19.148438 31.859375 19.320312 31.585938 L 21.289062 28.515625 C 25.523438 29.015625 27.648438 30.523438 27.648438 31.234375 C 27.648438 32.097656 24.535156 34.121094 18.503906 34.121094 C 12.472656 34.121094 9.359375 32.097656 9.359375 31.234375 C 9.359375 30.523438 11.480469 29.023438 15.71875 28.515625 Z M 17.6875 31.578125 " fill-opacity="1" fill-rule="nonzero"/></g><g fill="#000000" fill-opacity="1"><g transform="translate(18.237304, 18.873354)"><g><path d="M 0.140625 -0.109375 C 0.140625 -0.148438 0.148438 -0.179688 0.171875 -0.203125 C 0.191406 -0.222656 0.222656 -0.234375 0.265625 -0.234375 C 0.296875 -0.234375 0.320312 -0.222656 0.34375 -0.203125 C 0.363281 -0.179688 0.375 -0.148438 0.375 -0.109375 C 0.375 -0.0664062 0.363281 -0.03125 0.34375 0 C 0.320312 0.0195312 0.296875 0.03125 0.265625 0.03125 C 0.222656 0.03125 0.191406 0.0195312 0.171875 0 C 0.148438 -0.0195312 0.140625 -0.0546875 0.140625 -0.109375 Z M 0.140625 -0.109375 "/></g></g></g></svg>