<svg xmlns="http://www.w3.org/2000/svg" xmlns:xlink="http://www.w3.org/1999/xlink" width="50" zoomAndPan="magnify" viewBox="0 0 37.5 37.499999" height="50" preserveAspectRatio="xMidYMid meet" version="1.0"><defs><g/></defs><path fill="#c1ff72" d="M 4.429688 0.394531 C 4.429688 0.394531 -1.4375 6.953125 1.171875 12.609375 C 3.605469 17.882812 10.960938 30.125 23.308594 35.132812 C 25.109375 35.867188 27.089844 36.152344 29.003906 35.804688 C 30.4375 35.542969 34.394531 34.679688 35.699219 33.128906 C 35.835938 32.964844 36.089844 32.773438 36.347656 32.378906 C 36.578125 32.027344 36.996094 31.570312 36.835938 30.789062 C 36.625 29.738281 32.179688 25.632812 30.460938 24.082031 C 29.953125 23.625 29.304688 23.347656 28.625 23.347656 C 28.183594 23.347656 27.78125 23.449219 27.617188 23.742188 C 26.417969 25.875 25.152344 27.285156 24.078125 27.847656 C 22.675781 28.585938 13.933594 22.507812 10.402344 15.386719 C 9.859375 14.285156 10.089844 12.957031 10.980469 12.105469 C 12.085938 11.046875 13.875 9.257812 13.929688 8.894531 C 14.015625 8.285156 13.78125 7.90625 13.4375 7.125 C 13.160156 6.507812 9.167969 2.59375 7.480469 0.957031 C 6.867188 0.363281 6.050781 0.015625 5.195312 0.0429688 C 4.917969 0.0546875 4.542969 0.261719 4.429688 0.394531 Z M 4.429688 0.394531 " fill-opacity="1" fill-rule="nonzero"/><g fill="#000000" fill-opacity="1"><g transform="translate(18.237304, 18.873354)"><g><path d="M 0.140625 -0.109375 C 0.140625 -0.148438 0.148438 -0.179688 0.171875 -0.203125 C 0.191406 -0.222656 0.222656 -0.234375 0.265625 -0.234375 C 0.296875 -0.234375 0.320312 -0.222656 0.34375 -0.203125 C 0.363281 -0.179688 0.375 -0.148438 0.375 -0.109375 C 0.375 -0.0664062 0.363281 -0.03125 0.34375 0 C 0.320312 0.0195312 0.296875 0.03125 0.265625 0.03125 C 0.222656 0.03125 0.191406 0.0195312 0.171875 0 C 0.148438 -0.0195312 0.140625 -0.0546875 0.140625 -0.109375 Z M 0.140625 -0.109375 "/></g></g></g></svg>